<?xml version="1.0" encoding="UTF-8"?>
<svg version="1.1" viewBox="0 0 922 922" width="1280" height="1280" xmlns="http://www.w3.org/2000/svg">
<path transform="translate(332,224)" d="m0 0 145 1 1 45-5 2h-143l-18 2-14 4-16 7-10 7-8 7-7 8-7 11-5 11-3 10-3 16v19l4 19 5 13 7 12 9 12 10 9 10 7 13 6 11 4 7 1 1 1 10 1 104 1v-72l-86-1-2-4v-41l1-1h133l2 1v162l-1 1h-161l-21-3-14-4-10-4-16-8-12-8-9-7v-2l-4-2-1-3-4-2v-2l-3-1-12-16-6-11-6-12-4-10-5-22-2-14v-21l4-25 5-17 4-9 7-14 8-11 6-8 16-16 13-9 16-8 10-4 20-5 10-2z" fill="#FEFEFE"/>
<path transform="translate(680,224)" d="m0 0h74l29 1 1 1v45l-152 1-17 3-10 2-15 7-10 6-8 6-5 5-8 10-7 12-6 16-2 11v28l3 16 7 16 5 9 8 10 10 10 7 5 3 1v2l6 2 15 6 12 3 10 1 153 1 1 1v43l-1 1h-163l-22-3-14-4-10-4-16-8-12-8-13-11-13-14-10-16-6-12-4-10-4-13-2-6-2-19v-26l2-19 4-15 5-11 4-9 7-12 4-6h2l2-5 19-19 16-11 17-8 10-4 20-5 9-1 2-1z" fill="#FEFEFE"/>
<path transform="translate(664,539)" d="m0 0h8l5 4 13 18 13 17 3 4 3 1v-41l3-3h6l3 3v60l-3 3h-10l-6-7-10-14-15-20v-2l-3 1v34l-1 7-1 1h-8l-2-2-1-25 1-37z" fill="#FEFEFE"/>
<path transform="translate(606,538)" d="m0 0 9 1 14 7 6 7 4 7 2 14-3 13-6 9-6 5-9 4-7 1h-11l-8-2-7-3v-2l-4-2-5-5-3-6-2-8v-13l4-11 7-8 8-5 5-2zm-6 10-9 4-5 5-3 7-1 3v10l3 8 5 6 5 3 9 2 8-1 8-3 6-7 2-7v-11l-2-7-6-7h-2v-2l-9-3z" fill="#FEFEFE"/>
<path transform="translate(261,538)" d="m0 0 10 1 11 5 8 7 3 4 4 11v14l-4 10-7 8-5 4-6 3-5 1h-17l-9-3-6-4-8-9-3-9v-18l4-9 7-8 8-5 5-2zm-5 10-10 5-4 5-4 9v11l5 10 5 5 9 3h11l10-5 6-8 1-14-1-7-7-9-8-4-3-1z" fill="#FEFEFE"/>
<path transform="translate(564,629)" d="m0 0h8l1 1 1 23 1 2 8 1h13l8-1 1-21 2-5h8l1 1v63h-11l-1-8v-17h-29l-1 2-1 23h-10l-1-2v-59z" fill="#FEFEFE"/>
<path transform="translate(385,539)" d="m0 0h7l2 2 1 5 1 39 4 6 9 4h7l9-4 3-10 1-40 2-2h7l2 2 1 12v27l-3 13-5 7-8 5-6 1h-13l-7-2-8-5-4-4-4-10v-45z" fill="#FEFEFE"/>
<path transform="translate(418,630)" d="m0 0h46l1 1v6l-7 3-29 1 1 16 28 1v8l-4 2h-12l-12 1v13l1 2 32 1 2 2v6h-47z" fill="#FEFEFE"/>
<path transform="translate(181,538)" d="m0 0h8l9 2 7 4-1 6-3 3-4-1-9-3h-10l-6 4v6l3 3 11 4 14 5 6 5 3 6v8l-4 8-6 5-3 2-6 1h-15l-8-2-8-4-1-4 4-6 9 3 8 2h9l7-3 2-3-1-5-5-4-21-7-8-7-2-5v-8l4-8 8-5z" fill="#FEFEFE"/>
<path transform="translate(759,539)" d="m0 0h20l9 4 1 5-2 4-5 1-10-4h-9l-6 2-1 7 1 4 24 8 9 7 1 1v18l-7 7-9 3h-18l-7-2-6-3-1-4 3-5 4-1 10 4h14l5-3 1-7-4-4-15-5-8-3-6-5-2-3-1-9 2-7 5-6z" fill="#FEFEFE"/>
<path transform="translate(510,629)" d="m0 0h15l7 2 6 3 2 3-3 5-5 2-9-4-6-1-8 2-6 3-6 8-2 5v12l5 9 7 5 4 1h13l7-3 4-1 4 5-1 4-3 3-3 1h-30l-8-4-8-9-4-12v-12l6-14 9-8 8-4z" fill="#FEFEFE"/>
<path transform="translate(462,539)" d="m0 0h51l1 2v7l-2 2h-19v53l-2 2h-8l-2-1-1-52-1-1-18-1-1-1v-8z" fill="#FEFEFE"/>
<path transform="translate(342,630)" d="m0 0h53l1 1v8l-3 2h-18v51l-1 1h-11l-1-51-19-1-3-2v-7z" fill="#FEFEFE"/>
<path transform="translate(321,539)" d="m0 0h8l2 2 1 51 1 1 32 1 1 2v6l-4 3h-38l-4-1-1-11v-48z" fill="#FEFEFE"/>
<path transform="translate(537,539)" d="m0 0h9l2 4v59l-2 3h-9l-1-1v-64z" fill="#FEFEFE"/>
</svg>
