<?xml version="1.0" encoding="UTF-8"?>
<svg version="1.1" viewBox="0 0 881 908" width="881" height="908" xmlns="http://www.w3.org/2000/svg">
<path transform="translate(200,105)" d="m0 0h14l28 2 22 4 19 5 21 8 21 11 13 9 10 8 12 11 10 11 11 15 9 16 7 15 7 21 4 19 2 19v20l-2 19-5 23-8 22-12 23-10 14-11 13-13 13-17 13-5 3-1 2 9 3 18 10 17 12 13 12 13 13 12 16 9 15 10 21 7 22 4 20 2 21v14l-2 22-5 23-6 18-8 18-9 15-8 11-9 11-15 15-17 13-20 12-18 8-18 6-22 5-12 2-16 1-221-1v-696z" fill="#FEFEFE"/>
<path transform="translate(607,105)" d="m0 0h14l27 2 23 4 25 7 21 9 18 10 14 10 10 9 8 7 9 10 11 15 10 17 8 18 6 19 4 19 2 23-1 25-3 19-6 21-8 20-10 18-10 14-12 14-10 10-14 11-10 7 16 8 14 8 16 12 12 11 11 11 10 13 10 16 8 15 8 21 6 25 2 15v37l-4 25-7 23-8 18-10 18-9 12-11 13-11 11-14 11-15 10-16 8-19 8-22 6-22 4-17 1-180-1-6-15-2-4-1-114v-58l4-14 8-16 10-15 10-13 12-14 12-13 21-21 8-7 8-8 13-17 8-13 11-21 8-21 6-19 7-30 2-17 1-18v-32l-2-26-4-26-6-25-8-23-11-24-11-18-8-11-10-10-13-9-15-8-24-8-24-5-19-2v-1z" fill="#FEFEFE"/>
<path transform="translate(423,509)" d="m0 0h14l35 2 18 2 5 2-2 4-9 10-15 20-13 21-5 10-2-3-6-24-10-25-10-18z" fill="#FEFEFE"/>
<path transform="translate(536,267)" d="m0 0h8l5 4 1 2v9l-5 5-2 1h-6l-6-4-2-7 3-7z" fill="#FEFEFE"/>
<path transform="translate(535,382)" d="m0 0h7l6 5 1 2-1 9-4 4-8 1-5-3-3-4v-7l3-5z" fill="#FEFEFE"/>
<path transform="translate(497,344)" d="m0 0h7l5 3 2 4v7l-5 6-8 1-5-3-3-5v-6l5-6z" fill="#FEFEFE"/>
<path transform="translate(538,229)" d="m0 0 8 1 5 6v7l-3 5-4 2h-7l-4-2-3-5 1-9 4-4z" fill="#FEFEFE"/>
<path transform="translate(497,420)" d="m0 0 8 1 5 6v7l-5 6-2 1h-7l-6-5-1-2v-7l5-6z" fill="#FEFEFE"/>
<path transform="translate(536,343)" d="m0 0 8 1 5 5v9l-4 5-2 1h-8l-5-4-2-7 3-7z" fill="#FEFEFE"/>
<path transform="translate(497,305)" d="m0 0h8l5 4 2 7-3 7-6 3-7-1-5-5v-9l4-5z" fill="#FEFEFE"/>
<path transform="translate(499,267)" d="m0 0h6l6 5 1 2v7l-5 6-2 1h-7l-6-5-1-8 3-5z" fill="#FEFEFE"/>
<path transform="translate(499,191)" d="m0 0h8l5 5 1 2v7l-5 6-8 1-6-4-2-4 1-8z" fill="#FEFEFE"/>
<path transform="translate(535,306)" d="m0 0h9l5 5 1 2v6l-4 6-7 2-7-3-3-5v-6l4-6z" fill="#FEFEFE"/>
<path transform="translate(501,228)" d="m0 0 7 2 4 4 1 7-3 5-4 3h-8l-5-4-1-2v-8l5-6z" fill="#FEFEFE"/>
<path transform="translate(496,382)" d="m0 0h8l5 4 2 7-2 5-4 4-6 1-5-2-4-5v-8l4-5z" fill="#FEFEFE"/>
</svg>
