<?xml version="1.0" encoding="UTF-8"?>
<svg version="1.1" viewBox="0 0 881 908" width="881" height="908" xmlns="http://www.w3.org/2000/svg">
<path transform="translate(190,105)" d="m0 0h34l21 2 25 5 20 6 19 8 17 9 14 10 11 9 9 8 7 8 11 14 11 18 9 19 7 22 4 21 1 9v32l-3 21-5 19-7 19-11 21-9 13-8 10-12 13-10 9-18 13 16 8 14 8 12 9 13 11 12 12 11 14 9 14 11 21 7 19 5 20 3 23v29l-3 22-5 20-7 19-8 16-9 15-11 14-12 13-11 10-18 13-22 12-21 8-22 6-26 4h-231v-697z"/>
<path transform="translate(597,105)" d="m0 0h34l27 3 23 5 24 8 21 10 17 11 10 8 10 9 12 12 12 16 11 19 7 16 6 18 5 25 1 10v28l-3 22-6 23-8 20-8 15-8 12-11 14-10 11-8 7-14 11-7 5 16 8 14 8 17 13 13 12 11 12 11 15 11 19 9 21 6 20 4 23 1 11v23l-3 24-5 20-6 17-10 21-12 18-9 11-11 12-8 7-13 10-18 11-16 8-19 7-25 6-21 3h-190l-6-15-2-4-1-64-1-105 4-16 9-19 8-12 13-17 13-15 15-16 11-11 8-7 15-15 14-19 10-18 8-17 9-25 6-22 4-20 2-20v-55l-3-27-5-26-7-24-8-20-8-16-6-11-8-12-8-10-11-9-14-9-18-8-25-7-26-4-17-1v-1z"/>
<path transform="translate(422,509)" d="m0 0h25l39 3 10 2-2 4-11 13-12 16-11 17-9 17-2-1-4-19-8-23-8-16z"/>
<path transform="translate(535,343)" d="m0 0h8l6 5 1 8-3 6-6 3-7-1-5-5-1-2v-7l5-6z"/>
<path transform="translate(499,304)" d="m0 0 7 1 5 5 1 2-1 9-6 5h-8l-6-5-1-8 3-6z"/>
<path transform="translate(499,228)" d="m0 0 9 1 4 4 1 9-3 5-5 3h-6l-6-4-2-5 1-7 5-5z"/>
<path transform="translate(497,381)" d="m0 0h6l6 4 2 4v6l-4 6-4 2h-6l-6-4-2-4v-6l4-6z"/>
<path transform="translate(495,420)" d="m0 0h9l5 4 1 2v9l-4 5-5 2-6-1-5-4-1-2v-9l4-5z"/>
<path transform="translate(537,381)" d="m0 0 6 1 5 4 1 2v9l-5 5-2 1h-8l-5-4-2-7 3-7 4-3z"/>
<path transform="translate(539,266)" d="m0 0 7 2 4 4 1 2-1 9-6 5h-8l-6-5-1-9 3-5z"/>
<path transform="translate(497,267)" d="m0 0h9l5 4 2 7-3 7-4 3h-9l-5-4-1-2v-9l4-5z"/>
<path transform="translate(501,190)" d="m0 0 7 1 5 6 1 5-3 7-5 3h-7l-5-3-2-4v-8l4-5z"/>
<path transform="translate(499,343)" d="m0 0 6 1 5 4 1 2v9l-6 6h-8l-5-3-2-3v-9l4-5z"/>
<path transform="translate(536,305)" d="m0 0 9 1 5 6v8l-5 6-2 1h-7l-5-3-2-3v-10z"/>
<path transform="translate(537,229)" d="m0 0h7l6 4 1 2v9l-4 5-5 2-6-1-5-4-1-2v-9l5-5z"/>
</svg>
