<?xml version="1.0" encoding="UTF-8"?>
<svg version="1.1" viewBox="0 0 881 908" width="881" height="908" xmlns="http://www.w3.org/2000/svg">
<path transform="translate(195,105)" d="m0 0h24l24 2 22 4 21 6 20 8 19 10 16 11 15 13 9 9 11 14 9 14 10 19 7 19 5 21 2 13 1 14v14l-2 21-5 23-7 20-8 17-10 16-11 14-12 13-10 9-15 11-4 3 19 9 14 9 12 9 10 9 15 15 12 16 10 17 8 17 7 21 4 17 2 15v38l-4 25-7 23-8 18-9 16-10 14-12 14-9 9-14 11-15 10-21 11-22 8-21 5-18 3h-235v-696z" fill="#B570FE"/>
<path transform="translate(602,105)" d="m0 0h24l24 2 26 5 23 7 18 8 15 8 17 12 10 9 8 7 9 10 11 15 12 21 8 20 5 17 4 24v37l-3 20-6 22-8 19-9 17-9 13-9 11-11 12-11 9-13 10-4 3 17 8 19 12 11 9 10 9 11 11 13 17 8 13 8 16 6 15 6 21 3 16 1 9v34l-4 26-6 20-8 20-10 18-14 19-15 16-11 9-15 11-18 10-18 8-20 6-24 5-7 1h-195l-6-15-2-4-1-96v-77l4-13 8-16 9-14 10-13 11-13 9-10 15-16 10-9 13-12 9-11 9-12 9-15 8-16 8-19 8-26 6-27 2-19 1-21v-21l-2-30-4-27-7-28-8-22-8-18-11-19-10-14-10-10-13-9-15-8-20-7-22-5-23-3v-1z" fill="#B570FE"/>
<path transform="translate(423,509)" d="m0 0h18l33 2 21 3-2 4-9 11-14 18-12 19-7 13-2-1-5-21-7-20-10-20-4-6z" fill="#B570FE"/>
<path transform="translate(496,420)" d="m0 0h7l6 5 1 8-3 5-5 3h-6l-6-5-1-2v-7l3-5z" fill="#B571FE"/>
<path transform="translate(536,343)" d="m0 0h6l5 3 2 4v7l-3 5-4 2h-7l-5-4-2-4 1-7 4-5z" fill="#B672FE"/>
<path transform="translate(537,305)" d="m0 0 7 1 5 5 1 7-3 5-4 3h-8l-5-4-1-2v-8l5-6z" fill="#B571FE"/>
<path transform="translate(498,267)" d="m0 0h7l6 5 1 2-1 9-4 4-8 1-5-3-3-4v-7l3-5z" fill="#B571FE"/>
<path transform="translate(498,191)" d="m0 0h9l5 5 1 2v6l-4 6-5 2-6-1-5-4-1-9 4-6z" fill="#B571FE"/>
<path transform="translate(534,382)" d="m0 0h8l6 5 1 7-3 6-6 3-7-1-5-6v-8l4-5z" fill="#B570FE"/>
<path transform="translate(498,381)" d="m0 0 7 1 5 6v8l-4 5-2 1h-8l-6-5-1-7 3-6z" fill="#B571FE"/>
<path transform="translate(536,267)" d="m0 0h8l5 4 1 2v8l-5 6-7 1-6-3-3-6 1-7z" fill="#B570FE"/>
<path transform="translate(537,229)" d="m0 0h7l6 5 1 8-3 5-4 3h-7l-6-5-1-2v-7l5-6z" fill="#B570FE"/>
<path transform="translate(496,344)" d="m0 0h8l4 2 3 5v6l-4 6-5 2-6-1-5-4-1-2v-7l4-6z" fill="#B570FE"/>
<path transform="translate(500,228)" d="m0 0 7 1 5 5v9l-4 5-2 1h-8l-5-4-2-7 3-7z" fill="#B672FE"/>
<path transform="translate(497,305)" d="m0 0h8l5 4 1 2v8l-5 6-6 1-7-3-3-6 1-7z" fill="#B571FE"/>
</svg>
