<?xml version="1.0" encoding="UTF-8"?>
<svg version="1.1" viewBox="0 0 2048 712" width="1531" height="533" xmlns="http://www.w3.org/2000/svg">
<path transform="translate(70,93)" d="m0 0h190l24 3 17 5 12 5 13 9 8 8 7 11 5 11 4 16 1 9v21l-3 17-5 14-6 10-8 10-10 8-8 5 16 9 11 9 8 9 8 14 4 10 3 13 1 9v21l-3 18-4 12-6 12-10 13-12 10-14 8-21 7-18 3-13 1h-190l-1-1zm99 76v54l1 1h44l16-2 10-4 5-5 4-7 1-6v-9l-3-10-6-7-10-4-5-1zm1 129-1 1v55h66l12-3 8-5 5-10 1-13-2-9-6-8-6-4-11-3-17-1z" fill="#FEFEFE"/>
<path transform="translate(740,94)" d="m0 0h220l24 3 19 5 15 6 12 7 10 8 9 9 9 14 6 13 5 16 4 23 1 12v33l-3 23-5 19-7 16-9 14-9 10-12 9-13 7h-2l8 11 10 13 14 18 10 13 14 18 10 13 4 5v2h-113l-13-16-22-28-13-16-10-13-11-14-12-15-22-28-12-15-11-14-1-4h85l17-2 10-4 7-5 5-9 3-10 1-7v-14l-3-16-6-11-7-6-10-4-16-2h-90l-1 252-2 1h-96l-1-1v-75l7-15 8-25 4-20 2-22v-17l-2-22-5-24-7-21-7-16z" fill="#FEFEFE"/>
<path transform="translate(1814,85)" d="m0 0h36l28 2 28 4 25 6 30 10 2 1v94l-6-2-20-8-28-8-30-6-29-3h-14l-16 2-10 4-4 6-1 9 3 5 10 5 63 18 24 8 21 10 12 8 11 9 10 11 8 13 6 15 3 14 1 11v12l-2 18-5 19-6 14-8 12-9 10-10 9-13 8-15 7-19 6-23 4-11 1h-47l-25-2-27-4-23-5-20-6-21-9-4-3v-100l5 2 16 8 24 9 27 8 24 5 24 3h26l16-3 8-4 4-5v-11l-5-5-12-6-44-13-26-8-21-9-19-10-12-9-10-9-9-10-8-13-5-13-3-16v-23l3-18 6-18 8-14 10-12 11-9 13-8 15-7 21-6 24-4z" fill="#FEFEFE"/>
<path transform="translate(1260,85)" d="m0 0h39l36 3 30 5 18 4 2 1v101l-32-8-24-4-27-2h-18l-18 2-19 5-16 8-11 9-8 10-7 15-3 11-1 7v26l3 16 5 13 6 10 9 10 14 9 13 5 14 3 21 2v-93h99v177l-13 4-25 5-25 3-16 1h-49l-25-3-23-5-20-7-16-8-14-9-10-8-15-15-10-14-8-14-7-16-5-15-5-23-2-16-1-15v-21l2-24 4-22 6-21 9-21 9-15 11-14 14-14 15-11 23-12 24-8 26-5z" fill="#FEFEFE"/>
<path transform="translate(1418,94)" d="m0 0h242v84h-142v45h116v80l-116 1v44h142v85l-1 1h-240l-1-1z" fill="#FEFEFE"/>
<path transform="translate(535,92)" d="m0 0h34l20 3 19 5 24 10 17 10 13 10 10 9 13 13 12 16 12 21 8 20 6 23 2 15-9 3-13 5-11 8-8 8-11 16-12 22-15 31-8 16-10 18-10 14-11 13-7 7-15 11-16 8-15 5-14 3-14-1-22-5-19-7-16-8-15-9-11-9-10-9-11-11-10-13-11-18-8-17-1-4 4-13 6-8 8-7 11-5 14-3h23l23 2h37l26-3 22-5 18-6 19-9 14-10 9-8 10-14 8-16 4-12 2-13v-10l-3-16-7-16-9-13-7-8-11-9-14-9-16-8-21-7-24-4z" fill="#AE6DFE"/>
<path transform="translate(507,113)" d="m0 0h19l22 3 15 4 16 6 17 9 13 10 8 8 8 12 4 11 1 5v16l-4 16-7 14-9 11-14 11-16 8-18 6-19 4-27 3h-50l-18-1h-12l-15 2-12 4-9 5-10 9-5 7-2-3-2-17v-25l3-22 6-22 9-21 8-14 10-14 9-10 10-9 16-10 17-8 17-5z" fill="#AE6DFE"/>
<path transform="translate(1571,488)" d="m0 0 4 2 17 17 8 7 17 17 8 7 17 17 8 7 12 12 6 7v-88l1-1h18l1 1v134l-8-6-21-21-8-7-18-18-8-7-15-15-8-7-9-10-1-2-1 89h-19l-1-1z" fill="#AE6DFE"/>
<path transform="translate(71,492)" d="m0 0h38l18 2 8 4 6 5 5 8 2 7v17l-4 9-4 5-7 4 10 6 7 8 4 11v15l-4 12-7 9-8 5-10 3-12 1h-42l-1-1v-129zm20 18v37l3 1 18-1 10-4 4-5 1-4v-10l-3-7-4-4-5-2-6-1zm1 53-1 1v41h21l9-2 6-4 4-6 1-3v-11l-4-8-6-5-5-2-10-1z" fill="#AE6DFE"/>
<path transform="translate(1367,488)" d="m0 0 7 6 13 12 15 15 8 7 18 18 8 7 25 25 2 3 1-89h19l1 1v134l-4-2-11-11-8-7-15-15-8-7-19-19-8-7-21-21-3-4-1 89h-19z" fill="#AE6DFE"/>
<path transform="translate(754,492)" d="m0 0h20l1 1v47h63l1-48h20l1 1v130h-21l-1-63-63-1v63l-1 1h-20l-1-1v-129z" fill="#AE6DFE"/>
<path transform="translate(234,492)" d="m0 0h72v18h-51v33h51v19h-51v42h51v19h-72l-1-5v-112z" fill="#AE6DFE"/>
<path transform="translate(1212,492)" d="m0 0h72l1 1v17h-52v33h51l1 1v17l-1 1h-51v42h51l1 1v17l-1 1h-72z" fill="#AE6DFE"/>
<path transform="translate(622,489)" d="m0 0h12l16 3 12 5 8 5v14l-1 8-11-7-11-5-9-2h-19l-10 3-9 5-8 7-7 12-3 11v20l4 13 6 9 5 5 8 6 11 4 12 1 14-2 13-5 11-7 3-1v23l-9 6-15 5-6 1h-22l-16-4-12-6-10-8-8-9-7-12-4-13-1-5v-23l3-12 8-16 11-12 11-8 11-5 11-3z" fill="#AE6DFE"/>
<path transform="translate(433,488)" d="m0 0h2l17 36 26 56 15 32 4 9v2h-22l-7-15-8-18-52-1-3 9-11 24-1 1h-22l2-6 19-40 13-28 14-30zm1 40-8 21-9 20 1 3h34l-1-5-12-27-4-12z" fill="#AE6DFE"/>
<path transform="translate(1919,489)" d="m0 0 14 1 12 4 9 7 5 9-3 3-12 6-4-2-5-5-6-3h-13l-8 5-3 8 1 7 4 6 8 6 22 11 13 9 7 9 3 10v13l-4 13-6 8-7 6-12 5-5 1h-19l-13-4-8-6-6-7-4-9v-4l15-7h2l5 10 8 5 8 2h7l9-3 5-5 2-5v-10l-4-7-11-7-21-11-11-8-7-8-4-11v-12l4-12 9-10 9-5 6-2z" fill="#AE6DFE"/>
<path transform="translate(724,269)" d="m0 0h1v12l-4 24-8 24-9 19-9 14-10 13-14 15-11 9-14 10-16 9-16 7-7 2 4-4 8-7 8-8 12-18 10-18 12-23 16-32 10-17 8-11 9-10 8-6 7-3z" fill="#AE6DFE"/>
<path transform="translate(1048,492)" d="m0 0h88l2 1v17l-34 1-1 112h-21l-1-112-34-1v-17z" fill="#AE6DFE"/>
<path transform="translate(1777,492)" d="m0 0h19l2 1v129l-1 1h-20l-1-1v-129z" fill="#AE6DFE"/>
</svg>
